#!OML:ASF H:\Male1\Project 1\Capture day 1\Session 1\Male1.ASF
:FULLY-SPECIFIED
:DEGREES
597
root 16.8365 15.4903 -0.66933 177.088 -80.0942 -180.083
lowerback 5.89591 2.09381 -1.72667
upperback 1.77885 2.62045 -1.02276
thorax -1.50098 1.28979 -0.268673
lowerneck -7.90343 3.08154 6.89523
upperneck 10.6841 3.90279 -5.6044
head 4.74359 1.84155 -2.60709
rclavicle -4.45029e-014 1.31198e-014
rhumerus -35.8757 10.3126 -94.6732
rradius 27.0357
rwrist -19.8797
rhand -16.163 1.49032
rfingers 7.12502
rthumb 10.0429 -28.2501
lclavicle -4.45029e-014 1.31198e-014
lhumerus -26.6844 3.25775 80.7798
lradius 24.0202
lwrist -5.73748
lhand -20.2761 14.3743
lfingers 7.12502
lthumb 6.07323 44.2672
rfemur 0.320853 18.0975 24.0659
rtibia 19.3793
rfoot -32.9054 -33.1852
rtoes -10.1857
lfemur 1.22885 -18.8305 -22.3051
ltibia 20.698
lfoot -27.566 31.2102
ltoes 5.0979
598
root 16.8403 15.4897 -0.665745 177.209 -80.048 -180.236
lowerback 5.90043 2.08355 -1.74591
upperback 1.77722 2.60576 -1.01311
thorax -1.50634 1.28252 -0.24719
lowerneck -7.92397 3.09503 6.84722
upperneck 10.7017 3.9242 -5.58717
head 4.75254 1.85076 -2.59214
rclavicle -4.64659e-015 3.57812e-015
rhumerus -35.8182 10.3543 -94.5319
rradius 27.1997
rwrist -19.9083
rhand -16.1674 1.49515
rfingers 7.12502
rthumb 10.0387 -28.2454
lclavicle -4.64659e-015 3.57812e-015
lhumerus -26.7416 3.81113 80.5106
lradius 24.1522
lwrist -5.1867
lhand -20.5433 15.0772
lfingers 7.12502
lthumb 5.81532 44.9774
rfemur 0.299907 18.1112 24.0253
rtibia 19.4312
rfoot -32.8857 -33.1693
rtoes -10.2244
lfemur 1.2732 -18.7945 -22.3486
ltibia 20.6522
lfoot -27.6021 31.1848
ltoes 5.20946
599
root 16.8437 15.4887 -0.662187 177.334 -79.9744 -180.397
lowerback 5.90151 2.08613 -1.76923
upperback 1.78225 2.60791 -1.00507
thorax -1.50319 1.2835 -0.226011
lowerneck -7.95846 3.10994 6.80684
upperneck 10.7261 3.94573 -5.56777
head 4.76602 1.86029 -2.57758
rclavicle -1.02871e-014 -1.59028e-015
rhumerus -35.7655 10.406 -94.3983
rradius 27.3596
rwrist -19.9087
rhand -16.1253 1.48775
rfingers 7.12502
rthumb 10.0793 -28.2509
lclavicle -1.02871e-014 -1.59028e-015
lhumerus -26.8875 3.94267 80.393
lradius 24.4261
lwrist -4.58846
lhand -20.7862 15.3961
lfingers 7.12502
lthumb 5.58074 45.3026
rfemur 0.289422 18.1307 23.9839
rtibia 19.4706
rfoot -32.8482 -33.1407
rtoes -10.2984
lfemur 1.32322 -18.7488 -22.3988
ltibia 20.6197
lfoot -27.6622 31.1706
ltoes 5.35047
600
root 16.8468 15.4877 -0.658657 177.424 -79.8886 -180.522
lowerback 5.89555 2.10014 -1.78354
upperback 1.79 2.62587 -1.00198
thorax -1.49286 1.29231 -0.215746
lowerneck -8.00049 3.12372 6.78623
upperneck 10.7459 3.96271 -5.54747
head 4.77948 1.86842 -2.56616
rclavicle -1.87355e-014 7.15625e-015
rhumerus -35.7145 10.4307 -94.2691
rradius 27.5096
rwrist -19.8838
rhand -16.0588 1.46406
rfingers 7.12502
rthumb 10.1434 -28.2714
lclavicle -1.87355e-014 7.15625e-015
lhumerus -27.1199 3.73315 80.3939
lradius 24.84
lwrist -4.03551
lhand -20.8259 15.54
lfingers 7.12502
lthumb 5.5424 45.4476
rfemur 0.284913 18.1536 23.9489
rtibia 19.4952
rfoot -32.8041 -33.1028
rtoes -10.3646
lfemur 1.36762 -18.7021 -22.4436
ltibia 20.6006
lfoot -27.7321 31.1667
ltoes 5.5118
601
root 16.8501 15.4872 -0.655097 177.424 -79.8173 -180.546
lowerback 5.88381 2.11618 -1.77388
upperback 1.79655 2.64805 -1.00393
thorax -1.47929 1.30323 -0.22411
lowerneck -8.03804 3.12577 6.78663
upperneck 10.7579 3.96129 -5.52718
head 4.78903 1.86851 -2.55953
rclavicle 1.46107e-014 1.03368e-014
rhumerus -35.6597 10.4061 -94.1433
rradius 27.6439
rwrist -19.8348
rhand -15.9927 1.42133
rfingers 7.12502
rthumb 10.2072 -28.311
lclavicle 1.46107e-014 1.03368e-014
lhumerus -27.4233 3.29142 80.4757
lradius 25.3687
lwrist -3.59322
lhand -20.6814 15.4312
lfingers 7.12502
lthumb 5.68197 45.3351
rfemur 0.279886 18.1747 23.9313
rtibia 19.5046
rfoot -32.7661 -33.0698
rtoes -10.3982
lfemur 1.38975 -18.6542 -22.4626
ltibia 20.5941
lfoot -27.7767 31.1626
ltoes 5.63369
602
root 16.8542 15.4872 -0.651457 177.352 -79.7773 -180.482
lowerback 5.87199 2.12694 -1.74183
upperback 1.79875 2.66446 -1.01078
thorax -1.46885 1.31136 -0.249664
lowerneck -8.079 3.12543 6.81349
upperneck 10.7658 3.95364 -5.51196
head 4.79814 1.86635 -2.55918
rclavicle -2.127e-014 6.36111e-015
rhumerus -35.6032 10.3365 -94.0231
rradius 27.7638
rwrist -19.7814
rhand -15.9423 1.37421
rfingers 7.12502
rthumb 10.2558 -28.3558
lclavicle -2.127e-014 6.36111e-015
lhumerus -27.7646 2.72904 80.6059
lradius 25.9517
lwrist -3.30041
lhand -20.3906 15.1106
lfingers 7.12502
lthumb 5.9627 45.0067
rfemur 0.268056 18.1826 23.9265
rtibia 19.5002
rfoot -32.7255 -33.0547
rtoes -10.4379
lfemur 1.37967 -18.6008 -22.4527
ltibia 20.6
lfoot -27.768 31.152
ltoes 5.6608
603
root 16.8588 15.4875 -0.647683 177.266 -79.7701 -180.396
lowerback 5.86501 2.13038 -1.70004
upperback 1.79635 2.67146 -1.02264
thorax -1.46503 1.31489 -0.285414
lowerneck -8.12236 3.12142 6.84721
upperneck 10.778 3.93942 -5.49143
head 4.80862 1.86154 -2.55874
rclavicle -1.47101e-014 1.51076e-014
rhumerus -35.5531 10.2423 -93.9113
rradius 27.8758
rwrist -19.7551
rhand -15.9178 1.33175
rfingers 7.12502
rthumb 10.2795 -28.3971
lclavicle -1.47101e-014 1.51076e-014
lhumerus -28.1091 2.11958 80.7687
lradius 26.5197
lwrist -3.14462
lhand -20.0368 14.5596
lfingers 7.12502
lthumb 6.30431 44.4458
rfemur 0.250371 18.1713 23.9218
rtibia 19.4896
rfoot -32.6714 -33.0599
rtoes -10.5023
lfemur 1.34631 -18.5398 -22.429
ltibia 20.6137
lfoot -27.7112 31.1266
ltoes 5.59618
